<svg width="1440" height="60" viewBox="0 0 1440 60" fill="none" xmlns="http://www.w3.org/2000/svg">
  <path d="M0,0 Q30,20 60,10 Q90,0 120,15 Q150,30 180,20 Q210,10 240,25 Q270,40 300,30 Q330,20 360,35 Q390,50 420,40 Q450,30 480,45 Q510,60 540,50 Q570,40 600,55 Q630,70 660,60 Q690,50 720,65 Q750,80 780,70 Q810,60 840,75 Q870,90 900,80 Q930,70 960,85 Q990,100 1020,90 Q1050,80 1080,95 Q1110,110 1140,100 Q1170,90 1200,105 Q1230,120 1260,110 Q1290,100 1320,115 Q1350,130 1380,120 Q1410,110 1440,125 L1440,60 L0,60 Z" fill="black"/>
</svg>
