<svg width="1440" height="60" viewBox="0 0 1440 60" fill="none" xmlns="http://www.w3.org/2000/svg">
  <path d="M0,60 Q30,40 60,50 Q90,60 120,45 Q150,30 180,40 Q210,50 240,35 Q270,20 300,30 Q330,40 360,25 Q390,10 420,20 Q450,30 480,15 Q510,0 540,10 Q570,20 600,5 Q630,-10 660,0 Q690,10 720,-5 Q750,-20 780,-10 Q810,0 840,-15 Q870,-30 900,-20 Q930,-10 960,-25 Q990,-40 1020,-30 Q1050,-20 1080,-35 Q1110,-50 1140,-40 Q1170,-30 1200,-45 Q1230,-60 1260,-50 Q1290,-40 1320,-55 Q1350,-70 1380,-60 Q1410,-50 1440,-65 L1440,0 L0,0 Z" fill="white"/>
</svg>
